<?xml version="1.0" encoding="UTF-8"?>
<svg id="Layer_1" xmlns="http://www.w3.org/2000/svg" version="1.1" viewBox="0 0 142 69">
  <!-- Generator: Adobe Illustrator 30.0.0, SVG Export Plug-In . SVG Version: 2.1.1 Build 123)  -->
  <defs>
    <style>
      .st0 {
        fill: #d71920;
      }

      .st1 {
        fill: #010101;
      }
    </style>
  </defs>
  <g>
    <path class="st1" d="M12.6,44.9c0,0,.2,0,.2,0s.2,0,.2.2l1.4,1.5c-.6.8-1.4,1.4-2.3,1.8s-2,.6-3.2.6-2.2-.2-3.1-.6c-.9-.4-1.7-.9-2.3-1.6-.6-.7-1.1-1.5-1.5-2.4-.3-.9-.5-2-.5-3.1s.2-2.2.5-3.1.9-1.8,1.5-2.4c.7-.7,1.5-1.2,2.4-1.6s1.9-.6,3.1-.6,1.1,0,1.6.2c.5,0,1,.2,1.4.4.4.2.8.4,1.2.6.4.2.7.5,1,.8l-1.2,1.6c0,0-.2.2-.3.3-.1,0-.2.1-.4.1s-.2,0-.4,0c-.1,0-.2-.1-.4-.2-.1,0-.3-.2-.4-.3-.1,0-.3-.2-.5-.3-.2,0-.4-.1-.7-.2-.3,0-.6,0-1,0-.6,0-1.1.1-1.6.3-.5.2-.9.5-1.2.9-.3.4-.6.9-.8,1.5-.2.6-.3,1.3-.3,2s.1,1.5.3,2.1c.2.6.5,1.1.9,1.5.4.4.8.7,1.3.9.5.2,1,.3,1.6.3s.6,0,.9,0,.5,0,.7-.2.4-.2.6-.3c.2-.1.4-.3.6-.5,0,0,.2-.1.3-.2,0,0,.2,0,.3,0Z"/>
    <path class="st1" d="M19.6,36.4v3.5h4.7v2.6h-4.7v3.6h6.2v2.7h-9.7v-15.1h9.7v2.7h-6.2Z"/>
    <path class="st1" d="M37,46v2.8h-9.1v-15.1h3.5v12.3h5.6Z"/>
    <path class="st1" d="M42.3,36.4v3.5h4.7v2.6h-4.7v3.6h6.2v2.7h-9.7v-15.1h9.7v2.7h-6.2Z"/>
    <path class="st1" d="M56.2,33.7c1,0,1.9,0,2.7.3.7.2,1.3.5,1.8.8.5.4.8.8,1,1.3.2.5.3,1.1.3,1.7s0,.7-.1,1c0,.3-.2.6-.5.9-.2.3-.5.5-.8.7-.3.2-.7.4-1.2.6,1,.2,1.7.6,2.2,1.2s.7,1.2.7,2.1-.1,1.2-.4,1.8-.6,1-1.1,1.4c-.5.4-1.1.7-1.8,1-.7.2-1.5.3-2.4.3h-6v-15.1h5.5ZM54.1,36.3v3.7h1.8c.4,0,.7,0,1,0,.3,0,.6-.2.8-.3.2-.1.4-.3.5-.6.1-.2.2-.5.2-.9s0-.7-.1-.9c0-.2-.2-.4-.4-.6-.2-.1-.4-.2-.7-.3-.3,0-.6,0-1,0h-2ZM56.6,46.1c.5,0,.8,0,1.1-.2.3-.1.5-.3.7-.5.2-.2.3-.4.3-.6,0-.2,0-.5,0-.7s0-.5-.1-.7-.2-.4-.4-.6-.4-.3-.7-.4c-.3,0-.7-.1-1.1-.1h-2.4v3.8h2.5Z"/>
    <path class="st1" d="M76.8,48.8h-3.2c-.6,0-1-.2-1.3-.7l-2.5-4.4c-.1-.2-.2-.3-.4-.4-.1,0-.4-.1-.6-.1h-.9v5.6h-3.5v-15.1h4.9c1.1,0,2,.1,2.8.3.8.2,1.4.5,1.9.9.5.4.8.9,1.1,1.4s.3,1.1.3,1.8,0,1-.2,1.4c-.1.4-.3.8-.6,1.2-.3.4-.6.7-.9,1s-.8.5-1.3.7c.2.1.4.3.6.4s.4.4.5.6l3.2,5.2ZM69.4,40.8c.5,0,.9,0,1.2-.2.3-.1.6-.3.8-.5s.4-.5.5-.7.1-.6.1-.9c0-.7-.2-1.2-.6-1.6-.4-.4-1.1-.6-2-.6h-1.4v4.5h1.4Z"/>
    <path class="st1" d="M91.6,48.8h-2.7c-.3,0-.5,0-.7-.2-.2-.1-.3-.3-.4-.5l-.9-2.6h-5.7l-.9,2.6c0,.2-.2.4-.4.5-.2.2-.4.2-.7.2h-2.7l5.8-15.1h3.6l5.8,15.1ZM86,43l-1.4-4.1c-.1-.3-.2-.6-.3-.9-.1-.4-.2-.7-.4-1.2-.1.4-.2.8-.3,1.2-.1.4-.2.7-.3.9l-1.4,4.1h4.1Z"/>
    <path class="st1" d="M102.1,36.5h-4.2v12.3h-3.5v-12.3h-4.2v-2.8h12v2.8Z"/>
    <path class="st1" d="M107.4,48.8h-3.5v-15.1h3.5v15.1Z"/>
    <path class="st1" d="M125.1,41.2c0,1.1-.2,2.1-.6,3-.4.9-.9,1.8-1.6,2.4-.7.7-1.5,1.2-2.5,1.6-1,.4-2,.6-3.2.6s-2.2-.2-3.2-.6c-1-.4-1.8-.9-2.5-1.6s-1.2-1.5-1.6-2.4c-.4-.9-.6-2-.6-3s.2-2.1.6-3c.4-.9.9-1.8,1.6-2.4.7-.7,1.5-1.2,2.5-1.6,1-.4,2-.6,3.2-.6s2.2.2,3.2.6c1,.4,1.8.9,2.5,1.6.7.7,1.2,1.5,1.6,2.4.4.9.6,1.9.6,3ZM121.6,41.2c0-.7,0-1.4-.3-2-.2-.6-.5-1.1-.8-1.5-.4-.4-.8-.7-1.3-1-.5-.2-1.1-.3-1.8-.3s-1.3.1-1.8.3c-.5.2-1,.5-1.3,1-.4.4-.6.9-.8,1.5-.2.6-.3,1.3-.3,2s0,1.4.3,2c.2.6.5,1.1.8,1.5.4.4.8.7,1.3.9.5.2,1.1.3,1.8.3s1.3-.1,1.8-.3c.5-.2,1-.5,1.3-.9.4-.4.6-.9.8-1.5.2-.6.3-1.3.3-2Z"/>
    <path class="st1" d="M140.4,33.7v15.1h-1.8c-.3,0-.5,0-.7-.1-.2,0-.4-.2-.5-.5l-7.1-9c0,.3,0,.5,0,.8,0,.3,0,.5,0,.7v8.1h-3.1v-15.1h1.8c.2,0,.3,0,.4,0s.2,0,.3,0c0,0,.2,0,.2.2,0,0,.2.2.3.3l7.2,9.1c0-.3,0-.6,0-.8,0-.3,0-.5,0-.8v-8h3.1Z"/>
  </g>
  <g>
    <path class="st1" d="M39,63.5c0,0,.2,0,.2,0s.2,0,.2.2l1.4,1.5c-.6.8-1.4,1.4-2.3,1.8s-2,.6-3.2.6-2.2-.2-3.1-.6c-.9-.4-1.7-.9-2.3-1.6-.6-.7-1.1-1.5-1.5-2.4-.3-.9-.5-2-.5-3.1s.2-2.2.5-3.1.9-1.8,1.5-2.4c.7-.7,1.5-1.2,2.4-1.6s1.9-.6,3.1-.6,1.1,0,1.6.2c.5,0,1,.2,1.4.4.4.2.8.4,1.2.6.4.2.7.5,1,.8l-1.2,1.6c0,0-.2.2-.3.3-.1,0-.2.1-.4.1s-.2,0-.4,0c-.1,0-.2-.1-.4-.2-.1,0-.3-.2-.4-.3-.1,0-.3-.2-.5-.3-.2,0-.4-.1-.7-.2-.3,0-.6,0-1,0-.6,0-1.1.1-1.6.3-.5.2-.9.5-1.2.9-.3.4-.6.9-.8,1.5-.2.6-.3,1.3-.3,2s.1,1.5.3,2.1c.2.6.5,1.1.9,1.5.4.4.8.7,1.3.9.5.2,1,.3,1.6.3s.6,0,.9,0,.5,0,.7-.2.4-.2.6-.3c.2-.1.4-.3.6-.5,0,0,.2-.1.3-.2,0,0,.2,0,.3,0Z"/>
    <path class="st1" d="M55.5,52.3v15.1h-3.5v-6.4h-6.1v6.4h-3.5v-15.1h3.5v6.3h6.1v-6.3h3.5Z"/>
    <path class="st1" d="M64.7,64.6c.5,0,.9,0,1.3-.2.4-.2.7-.4.9-.7.3-.3.4-.6.6-1.1.1-.4.2-.9.2-1.4v-8.9h3.5v8.9c0,.9-.2,1.8-.4,2.5-.3.8-.7,1.4-1.3,2s-1.2,1-2,1.3c-.8.3-1.7.5-2.7.5s-1.9-.2-2.7-.5c-.8-.3-1.5-.7-2-1.3-.6-.6-1-1.2-1.3-2-.3-.8-.4-1.6-.4-2.5v-8.9h3.5v8.9c0,.5,0,1,.2,1.4.1.4.3.8.6,1.1.3.3.6.5.9.7s.8.2,1.3.2Z"/>
    <path class="st1" d="M86.3,67.4h-3.2c-.6,0-1-.2-1.3-.7l-2.5-4.4c-.1-.2-.2-.3-.4-.4-.1,0-.4-.1-.6-.1h-.9v5.6h-3.5v-15.1h4.9c1.1,0,2,.1,2.8.3.8.2,1.4.5,1.9.9.5.4.8.9,1.1,1.4s.3,1.1.3,1.8,0,1-.2,1.4c-.1.4-.3.8-.6,1.2-.3.4-.6.7-.9,1s-.8.5-1.3.7c.2.1.4.3.6.4s.4.4.5.6l3.2,5.2ZM78.9,59.4c.5,0,.9,0,1.2-.2.3-.1.6-.3.8-.5s.4-.5.5-.7.1-.6.1-.9c0-.7-.2-1.2-.6-1.6-.4-.4-1.1-.6-2-.6h-1.4v4.5h1.4Z"/>
    <path class="st1" d="M97.5,63.5c0,0,.2,0,.2,0s.2,0,.2.2l1.4,1.5c-.6.8-1.4,1.4-2.3,1.8s-2,.6-3.2.6-2.2-.2-3.1-.6c-.9-.4-1.7-.9-2.3-1.6-.6-.7-1.1-1.5-1.5-2.4-.3-.9-.5-2-.5-3.1s.2-2.2.5-3.1.9-1.8,1.5-2.4c.7-.7,1.5-1.2,2.4-1.6s1.9-.6,3.1-.6,1.1,0,1.6.2c.5,0,1,.2,1.4.4.4.2.8.4,1.2.6.4.2.7.5,1,.8l-1.2,1.6c0,0-.2.2-.3.3-.1,0-.2.1-.4.1s-.2,0-.4,0c-.1,0-.2-.1-.4-.2-.1,0-.3-.2-.4-.3-.1,0-.3-.2-.5-.3-.2,0-.4-.1-.7-.2-.3,0-.6,0-1,0-.6,0-1.1.1-1.6.3-.5.2-.9.5-1.2.9-.3.4-.6.9-.8,1.5-.2.6-.3,1.3-.3,2s.1,1.5.3,2.1c.2.6.5,1.1.9,1.5.4.4.8.7,1.3.9.5.2,1,.3,1.6.3s.6,0,.9,0,.5,0,.7-.2.4-.2.6-.3c.2-.1.4-.3.6-.5,0,0,.2-.1.3-.2,0,0,.2,0,.3,0Z"/>
    <path class="st1" d="M114,52.3v15.1h-3.5v-6.4h-6.1v6.4h-3.5v-15.1h3.5v6.3h6.1v-6.3h3.5Z"/>
  </g>
  <path class="st0" d="M83.1,9.3l-3.1,3.5c-.9-1.2-2.8-3.4-4.8-4.5-1-.5-3.1-1.7-5.9-.7-1.6.6-3.1,1.9-4,2.7-1.5,1.5-2.5,2.5-4.2,4.5-.8.9-2.2,2.5-3.3,3.6-1,1-2.6,2.3-3.5,2.9-.3.2-2,1.3-4.1,2.1-1.5.5-2.4.7-2.7.7-.3,0-2.7.4-5-.6-1.5-.6-2.6-1.5-3.3-2.2-.1-.1-1-1-1.6-2.1-1-1.8-1.9-4-1.5-7.9.3-2.5,1.7-4.7,2.3-5.6,2.6-3.6,5.5-4.2,7.8-4.2,5.5,0,10.9,5.7,12.5,7.5l-3,3.4c-1.5-1.7-6-6.2-9.9-5.9-2.8.3-4.7,2.4-5.2,5.7-.6,4,1.9,7.5,5.6,7.5,1.9,0,4.1-.2,7.6-3.7.3-.3,1.7-1.7,2.8-3,.3-.3,1.6-1.9,3-3.4,1.2-1.3,2.3-2.4,2.7-2.8.8-.8,4.5-4.5,9.1-4.7.8,0,1.7,0,2.5.3.8.2,1.6.5,2.2.9,1.2.6,2.1,1.2,3.1,2.1.5.4,1,.9,1.5,1.4,1,1,1.8,2,2.3,2.6ZM106.8,11.8c0-.4-.1-.7-.1-.9,0-.3-.2-1.1-.5-2-.3-1-.8-1.9-1.3-2.6-.2-.3-.7-1-1.2-1.6-.6-.6-1.6-1.5-3.1-2.2-.8-.4-2.4-1-4.5-.9-.3,0-1.7,0-3.8,1-2,.9-3.3,2-3.5,2.2-.9.6-2.4,2.2-3.3,3.1-.9,1-3,3.7-3.8,4.6-1.7,2-2.4,3-3.9,4.4-.9.9-2.8,2.4-4.4,3-2.9,1-4.8-.3-5.8-.9-1.9-1.2-3.9-3.6-4.7-4.8l-3.2,3.8c.5.7,1.4,1.9,2.3,2.8.5.5,1,1,1.5,1.5,1.1.9,1.7,1.3,2.9,2,.6.3,1.4.6,2.2.8.8.2,2,.3,2.8.2,3.6,0,6.7-2.6,8.3-3.8.2,0,2.2-2,3.3-3.3,1.2-1.3,2.9-3.5,3.1-3.8,1-1.2,2.6-3,2.8-3.3,3-3.3,5.5-4.6,7.4-4.6,3.7,0,5.6,3,6.3,5.6.2.8.3,1.9,0,2.8-.1.8-.4,1.5-1.1,2.4-.7.9-1.6,1.4-2.3,1.8-1,.5-1.7.5-2.5.6-2.2.2-4.4-1.1-6.2-2.4-1.4-1.1-2.6-2.2-3.2-2.8l-2.8,3.7c.8.7,2.4,2.1,3.9,3.3.2.2,1.5,1.1,3.3,1.9,1.2.5,2.6.8,3.9,1,.6,0,1.4,0,2.2,0,.9,0,1.9-.3,2.5-.5.2,0,1.7-.6,2.9-1.7.3-.3,1.7-1.3,2.8-4.1.8-1.9.8-4,.8-4.7,0-.2,0-1,0-1.5Z"/>
</svg>